<svg xmlns="http://www.w3.org/2000/svg" version="1.1" xmlns:xlink="http://www.w3.org/1999/xlink" width="1500" height="1500" viewBox="0 0 1500 1500"><rect width="1500" height="1500" x="0" y="0" id="background" stroke="transparent" fill="#ffffff"></rect><svg xml:space="preserve" width="1000" height="1000" data-version="2" data-id="lg_yHuFmcvttDADB8A1h8" viewBox="0 0 571 357" x="250" y="250"><rect width="100%" height="100%" fill="transparent"></rect><rect width="428" height="76.84" x="-214" y="-38.42" fill="none" rx="0" ry="0" transform="translate(356.32 178.5)"></rect><g transform="translate(165.92 180.82)"><linearGradient id="a" x1="-.386" x2="14.349" y1="0" y2="0" gradientUnits="objectBoundingBox"><stop offset="0%" stop-color="#cbcbcb"></stop><stop offset="100%" stop-color="#636363"></stop></linearGradient><path fill="url(#a)" d="M160.48 188.98q.27 1.09.27 2.72 0 1.57-.27 2.72h-2.72q.27 1.09.27 2.72 0 1.57-.27 2.72h-2.72q-.27-1.15-.27-2.72 0-1.63.27-2.72-.27-1.15-.27-2.72 0-1.63.27-2.72-.27-1.15-.27-2.72 0-1.63.27-2.72-.27-1.15-.27-2.72 0-1.63.27-2.72-.27-1.15-.27-2.72 0-1.63.27-2.72-.27-1.15-.27-2.72 0-1.63.27-2.72-.27-1.15-.27-2.72 0-1.63.27-2.72h5.44q.27 1.09.27 2.72 0 1.57-.27 2.72.27 1.09.27 2.72 0 1.57-.27 2.72.27 1.09.27 2.72 0 1.57-.27 2.72h2.72q.27 1.09.27 2.72 0 1.57-.27 2.72h-2.72q.27 1.09.27 2.72 0 1.57-.27 2.72m16.59-2.72q0 1.57-.27 2.72h-2.72q.27 1.09.27 2.72 0 1.57-.27 2.72h-5.44q-.27-1.15-.27-2.72 0-1.63.27-2.72h2.72q-.27-1.15-.27-2.72 0-1.63.27-2.72h-2.72q-.27-1.15-.27-2.72 0-1.63.27-2.72h-5.44q-.27-1.15-.27-2.72 0-1.63.27-2.72h8.16q.27 1.09.27 2.72 0 1.57-.27 2.72h2.72q.27 1.09.27 2.72 0 1.57-.27 2.72h2.72q.27 1.09.27 2.72m-16.86 10.88q0-1.63.27-2.72h8.16q.27 1.09.27 2.72 0 1.57-.27 2.72h-8.16q-.27-1.15-.27-2.72" transform="translate(-165.92 -180.82)"></path></g><g transform="translate(193.12 186.26)"><linearGradient id="b" x1="-1.386" x2="13.349" y1="0" y2="0" gradientUnits="objectBoundingBox"><stop offset="0%" stop-color="#cbcbcb"></stop><stop offset="100%" stop-color="#636363"></stop></linearGradient><path fill="url(#b)" d="M189.99 191.7q0 1.57-.27 2.72h6.8q.27 1.09.27 2.72 0 1.57-.27 2.72h-10.88q-.27-1.15-.27-2.72 0-1.63.27-2.72h-3.4q-.27-1.15-.27-2.72 0-1.63.27-2.72-.27-1.15-.27-2.72 0-1.63.27-2.72-.27-1.15-.27-2.72 0-1.63.27-2.72-.27-1.15-.27-2.72 0-1.63.27-2.72h5.44q.27 1.09.27 2.72 0 1.57-.27 2.72.27 1.09.27 2.72 0 1.57-.27 2.72.27 1.09.27 2.72 0 1.57-.27 2.72h2.04q.27 1.09.27 2.72M204 178.1q.27 1.09.27 2.72 0 1.57-.27 2.72.27 1.09.27 2.72 0 1.57-.27 2.72.27 1.09.27 2.72 0 1.57-.27 2.72.27 1.09.27 2.72 0 1.57-.27 2.72h-5.44q-.27-1.15-.27-2.72 0-1.63.27-2.72h-2.04q-.27-1.15-.27-2.72 0-1.63.27-2.72h2.04q-.27-1.15-.27-2.72 0-1.63.27-2.72-.27-1.15-.27-2.72 0-1.63.27-2.72-.27-1.15-.27-2.72 0-1.63.27-2.72H204q.27 1.09.27 2.72 0 1.57-.27 2.72" transform="translate(-193.12 -186.26)"></path></g><g transform="translate(220.32 180.82)"><linearGradient id="c" x1="-2.386" x2="12.349" y1="0" y2="0" gradientUnits="objectBoundingBox"><stop offset="0%" stop-color="#cbcbcb"></stop><stop offset="100%" stop-color="#636363"></stop></linearGradient><path fill="url(#c)" d="M223.04 167.22h-5.44q-.27-1.15-.27-2.72 0-1.63.27-2.72h5.44q.27 1.09.27 2.72 0 1.57-.27 2.72m5.44 27.2q.27 1.09.27 2.72 0 1.57-.27 2.72h-16.32q-.27-1.15-.27-2.72 0-1.63.27-2.72h5.44q-.27-1.15-.27-2.72 0-1.63.27-2.72-.27-1.15-.27-2.72 0-1.63.27-2.72-.27-1.15-.27-2.72 0-1.63.27-2.72h-4.08q-.27-1.15-.27-2.72 0-1.63.27-2.72h9.52q.27 1.09.27 2.72 0 1.57-.27 2.72.27 1.09.27 2.72 0 1.57-.27 2.72.27 1.09.27 2.72 0 1.57-.27 2.72.27 1.09.27 2.72 0 1.57-.27 2.72z" transform="translate(-220.32 -180.82)"></path></g><g transform="translate(247.52 180.82)"><linearGradient id="d" x1="-3.386" x2="11.349" y1="0" y2="0" gradientUnits="objectBoundingBox"><stop offset="0%" stop-color="#cbcbcb"></stop><stop offset="100%" stop-color="#636363"></stop></linearGradient><path fill="url(#d)" d="M255.68 194.42q.27 1.09.27 2.72 0 1.57-.27 2.72h-16.32q-.27-1.15-.27-2.72 0-1.63.27-2.72h5.44q-.27-1.15-.27-2.72 0-1.63.27-2.72-.27-1.15-.27-2.72 0-1.63.27-2.72-.27-1.15-.27-2.72 0-1.63.27-2.72-.27-1.15-.27-2.72 0-1.63.27-2.72-.27-1.15-.27-2.72 0-1.63.27-2.72h-4.08q-.27-1.15-.27-2.72 0-1.63.27-2.72h9.52q.27 1.09.27 2.72 0 1.57-.27 2.72.27 1.09.27 2.72 0 1.57-.27 2.72.27 1.09.27 2.72 0 1.57-.27 2.72.27 1.09.27 2.72 0 1.57-.27 2.72.27 1.09.27 2.72 0 1.57-.27 2.72.27 1.09.27 2.72 0 1.57-.27 2.72z" transform="translate(-247.52 -180.82)"></path></g><g transform="translate(273.36 180.82)"><linearGradient id="e" x1="-4.386" x2="10.349" y1="0" y2="0" gradientUnits="objectBoundingBox"><stop offset="0%" stop-color="#cbcbcb"></stop><stop offset="100%" stop-color="#636363"></stop></linearGradient><path fill="url(#e)" d="M274.72 194.42h8.16q.27 1.09.27 2.72 0 1.57-.27 2.72H272q-.27-1.15-.27-2.72 0-1.63.27-2.72h-2.72q-.27-1.15-.27-2.72 0-1.63.27-2.72-.27-1.15-.27-2.72 0-1.63.27-2.72-.27-1.15-.27-2.72 0-1.63.27-2.72h-5.44q-.27-1.15-.27-2.72 0-1.63.27-2.72h5.44q-.27-1.15-.27-2.72 0-1.63.27-2.72-.27-1.15-.27-2.72 0-1.63.27-2.72h5.44q.27 1.09.27 2.72 0 1.57-.27 2.72.27 1.09.27 2.72 0 1.57-.27 2.72h8.16q.27 1.09.27 2.72 0 1.57-.27 2.72h-8.16q.27 1.09.27 2.72 0 1.57-.27 2.72.27 1.09.27 2.72 0 1.57-.27 2.72.27 1.09.27 2.72 0 1.57-.27 2.72" transform="translate(-273.36 -180.82)"></path></g><g transform="translate(301.92 180.82)"><linearGradient id="f" x1="-5.386" x2="9.349" y1="0" y2="0" gradientUnits="objectBoundingBox"><stop offset="0%" stop-color="#cbcbcb"></stop><stop offset="100%" stop-color="#636363"></stop></linearGradient><path fill="url(#f)" d="M296.48 188.98q.27 1.09.27 2.72 0 1.57-.27 2.72h-2.72q.27 1.09.27 2.72 0 1.57-.27 2.72h-2.72q-.27-1.15-.27-2.72 0-1.63.27-2.72-.27-1.15-.27-2.72 0-1.63.27-2.72-.27-1.15-.27-2.72 0-1.63.27-2.72-.27-1.15-.27-2.72 0-1.63.27-2.72-.27-1.15-.27-2.72 0-1.63.27-2.72-.27-1.15-.27-2.72 0-1.63.27-2.72-.27-1.15-.27-2.72 0-1.63.27-2.72h5.44q.27 1.09.27 2.72 0 1.57-.27 2.72.27 1.09.27 2.72 0 1.57-.27 2.72.27 1.09.27 2.72 0 1.57-.27 2.72h2.72q.27 1.09.27 2.72 0 1.57-.27 2.72h-2.72q.27 1.09.27 2.72 0 1.57-.27 2.72m16.59-2.72q0 1.57-.27 2.72h-2.72q.27 1.09.27 2.72 0 1.57-.27 2.72h-5.44q-.27-1.15-.27-2.72 0-1.63.27-2.72h2.72q-.27-1.15-.27-2.72 0-1.63.27-2.72h-2.72q-.27-1.15-.27-2.72 0-1.63.27-2.72h-5.44q-.27-1.15-.27-2.72 0-1.63.27-2.72h8.16q.27 1.09.27 2.72 0 1.57-.27 2.72h2.72q.27 1.09.27 2.72 0 1.57-.27 2.72h2.72q.27 1.09.27 2.72m-16.86 10.88q0-1.63.27-2.72h8.16q.27 1.09.27 2.72 0 1.57-.27 2.72h-8.16q-.27-1.15-.27-2.72" transform="translate(-301.92 -180.82)"></path></g><g transform="translate(328.78 191.7)"><linearGradient id="g" x1="-6.386" x2="8.349" y1="0" y2="0" gradientUnits="objectBoundingBox"><stop offset="0%" stop-color="#cbcbcb"></stop><stop offset="100%" stop-color="#636363"></stop></linearGradient><path fill="url(#g)" d="M340.27 175.38q0 1.57-.27 2.72h-2.04q.27 1.09.27 2.72 0 1.57-.27 2.72h-2.04q.27 1.09.27 2.72 0 1.57-.27 2.72h-1.36q.27 1.09.27 2.72 0 1.57-.27 2.72h-2.04q.27 1.09.27 2.72 0 1.57-.27 2.72h-1.36q.27 1.09.27 2.72 0 1.57-.27 2.72h-2.72q.27 1.09.27 2.72 0 1.57-.27 2.72h-8.16q-.27-1.15-.27-2.72 0-1.63.27-2.72h5.44q-.27-1.15-.27-2.72 0-1.63.27-2.72-.27-1.15-.27-2.72 0-1.63.27-2.72H323q-.27-1.15-.27-2.72 0-1.63.27-2.72h-1.36q-.27-1.15-.27-2.72 0-1.63.27-2.72h-2.04q-.27-1.15-.27-2.72 0-1.63.27-2.72h-2.04q-.27-1.15-.27-2.72 0-1.63.27-2.72H323q.27 1.09.27 2.72 0 1.57-.27 2.72h2.04q.27 1.09.27 2.72 0 1.57-.27 2.72h2.04q.27 1.09.27 2.72 0 1.57-.27 2.72.27 1.09.27 2.72 0 1.57-.27 2.72h2.04q-.27-1.15-.27-2.72 0-1.63.27-2.72h1.36q-.27-1.15-.27-2.72 0-1.63.27-2.72h2.04q-.27-1.15-.27-2.72 0-1.63.27-2.72h2.04q-.27-1.15-.27-2.72 0-1.63.27-2.72H340q.27 1.09.27 2.72" transform="translate(-328.78 -191.7)"></path></g><g transform="translate(356.32 186.26)"><linearGradient id="h" x1="-7.386" x2="7.349" y1="0" y2="0" gradientUnits="objectBoundingBox"><stop offset="0%" stop-color="#cbcbcb"></stop><stop offset="100%" stop-color="#636363"></stop></linearGradient><path fill="url(#h)" d="M367.47 180.82q0 1.57-.27 2.72.27 1.09.27 2.72 0 1.57-.27 2.72h-14.28q.27 1.09.27 2.72 0 1.57-.27 2.72h11.56q.27 1.09.27 2.72 0 1.57-.27 2.72h-13.6q-.27-1.15-.27-2.72 0-1.63.27-2.72h-3.4q-.27-1.15-.27-2.72 0-1.63.27-2.72h-2.04q-.27-1.15-.27-2.72 0-1.63.27-2.72h2.04q-.27-1.15-.27-2.72 0-1.63.27-2.72h3.4q-.27-1.15-.27-2.72 0-1.63.27-2.72h13.6q.27 1.09.27 2.72 0 1.57-.27 2.72h2.72q.27 1.09.27 2.72m-5.71 2.72q-.27-1.15-.27-2.72 0-1.63.27-2.72h-8.84q.27 1.09.27 2.72 0 1.57-.27 2.72z" transform="translate(-356.32 -186.26)"></path></g><g transform="translate(383.52 180.82)"><linearGradient id="i" x1="-8.386" x2="6.349" y1="0" y2="0" gradientUnits="objectBoundingBox"><stop offset="0%" stop-color="#cbcbcb"></stop><stop offset="100%" stop-color="#636363"></stop></linearGradient><path fill="url(#i)" d="M378.08 188.98q.27 1.09.27 2.72 0 1.57-.27 2.72h-2.72q.27 1.09.27 2.72 0 1.57-.27 2.72h-2.72q-.27-1.15-.27-2.72 0-1.63.27-2.72-.27-1.15-.27-2.72 0-1.63.27-2.72-.27-1.15-.27-2.72 0-1.63.27-2.72-.27-1.15-.27-2.72 0-1.63.27-2.72-.27-1.15-.27-2.72 0-1.63.27-2.72-.27-1.15-.27-2.72 0-1.63.27-2.72-.27-1.15-.27-2.72 0-1.63.27-2.72h5.44q.27 1.09.27 2.72 0 1.57-.27 2.72.27 1.09.27 2.72 0 1.57-.27 2.72.27 1.09.27 2.72 0 1.57-.27 2.72h2.72q.27 1.09.27 2.72 0 1.57-.27 2.72h-2.72q.27 1.09.27 2.72 0 1.57-.27 2.72m16.59-2.72q0 1.57-.27 2.72h-2.72q.27 1.09.27 2.72 0 1.57-.27 2.72h-5.44q-.27-1.15-.27-2.72 0-1.63.27-2.72h2.72q-.27-1.15-.27-2.72 0-1.63.27-2.72h-2.72q-.27-1.15-.27-2.72 0-1.63.27-2.72h-5.44q-.27-1.15-.27-2.72 0-1.63.27-2.72h8.16q.27 1.09.27 2.72 0 1.57-.27 2.72h2.72q.27 1.09.27 2.72 0 1.57-.27 2.72h2.72q.27 1.09.27 2.72m-16.86 10.88q0-1.63.27-2.72h8.16q.27 1.09.27 2.72 0 1.57-.27 2.72h-8.16q-.27-1.15-.27-2.72" transform="translate(-383.52 -180.82)"></path></g><g transform="translate(410.72 186.26)"><linearGradient id="j" x1="-9.386" x2="5.349" y1="0" y2="0" gradientUnits="objectBoundingBox"><stop offset="0%" stop-color="#cbcbcb"></stop><stop offset="100%" stop-color="#636363"></stop></linearGradient><path fill="url(#j)" d="M407.59 191.7q0 1.57-.27 2.72h6.8q.27 1.09.27 2.72 0 1.57-.27 2.72h-10.88q-.27-1.15-.27-2.72 0-1.63.27-2.72h-3.4q-.27-1.15-.27-2.72 0-1.63.27-2.72-.27-1.15-.27-2.72 0-1.63.27-2.72-.27-1.15-.27-2.72 0-1.63.27-2.72-.27-1.15-.27-2.72 0-1.63.27-2.72h5.44q.27 1.09.27 2.72 0 1.57-.27 2.72.27 1.09.27 2.72 0 1.57-.27 2.72.27 1.09.27 2.72 0 1.57-.27 2.72h2.04q.27 1.09.27 2.72m14.01-13.6q.27 1.09.27 2.72 0 1.57-.27 2.72.27 1.09.27 2.72 0 1.57-.27 2.72.27 1.09.27 2.72 0 1.57-.27 2.72.27 1.09.27 2.72 0 1.57-.27 2.72h-5.44q-.27-1.15-.27-2.72 0-1.63.27-2.72h-2.04q-.27-1.15-.27-2.72 0-1.63.27-2.72h2.04q-.27-1.15-.27-2.72 0-1.63.27-2.72-.27-1.15-.27-2.72 0-1.63.27-2.72-.27-1.15-.27-2.72 0-1.63.27-2.72h5.44q.27 1.09.27 2.72 0 1.57-.27 2.72" transform="translate(-410.72 -186.26)"></path></g><g transform="translate(437.92 186.26)"><linearGradient id="k" x1="-10.386" x2="4.349" y1="0" y2="0" gradientUnits="objectBoundingBox"><stop offset="0%" stop-color="#cbcbcb"></stop><stop offset="100%" stop-color="#636363"></stop></linearGradient><path fill="url(#k)" d="M432.07 175.38q0 1.57-.27 2.72h2.72q.27 1.09.27 2.72 0 1.57-.27 2.72h-2.04q.27 1.09.27 2.72 0 1.57-.27 2.72.27 1.09.27 2.72 0 1.57-.27 2.72.27 1.09.27 2.72 0 1.57-.27 2.72h-5.44q-.27-1.15-.27-2.72 0-1.63.27-2.72-.27-1.15-.27-2.72 0-1.63.27-2.72-.27-1.15-.27-2.72 0-1.63.27-2.72-.27-1.15-.27-2.72 0-1.63.27-2.72-.27-1.15-.27-2.72 0-1.63.27-2.72h4.76q.27 1.09.27 2.72m16.73 8.16q.27 1.09.27 2.72 0 1.57-.27 2.72.27 1.09.27 2.72 0 1.57-.27 2.72.27 1.09.27 2.72 0 1.57-.27 2.72h-5.44q-.27-1.15-.27-2.72 0-1.63.27-2.72-.27-1.15-.27-2.72 0-1.63.27-2.72-.27-1.15-.27-2.72 0-1.63.27-2.72-.27-1.15-.27-2.72 0-1.63.27-2.72h-8.84q-.27-1.15-.27-2.72 0-1.63.27-2.72h10.88q.27 1.09.27 2.72 0 1.57-.27 2.72h3.4q.27 1.09.27 2.72 0 1.57-.27 2.72" transform="translate(-437.92 -186.26)"></path></g><g transform="translate(465.12 186.26)"><linearGradient id="l" x1="-11.386" x2="3.349" y1="0" y2="0" gradientUnits="objectBoundingBox"><stop offset="0%" stop-color="#cbcbcb"></stop><stop offset="100%" stop-color="#636363"></stop></linearGradient><path fill="url(#l)" d="M476.27 186.26q0 1.57-.27 2.72h-2.04q.27 1.09.27 2.72 0 1.57-.27 2.72h-3.4q.27 1.09.27 2.72 0 1.57-.27 2.72h-10.88q-.27-1.15-.27-2.72 0-1.63.27-2.72h-3.4q-.27-1.15-.27-2.72 0-1.63.27-2.72h-2.04q-.27-1.15-.27-2.72 0-1.63.27-2.72h2.04q-.27-1.15-.27-2.72 0-1.63.27-2.72h3.4q-.27-1.15-.27-2.72 0-1.63.27-2.72h10.88q.27 1.09.27 2.72 0 1.57-.27 2.72h3.4q.27 1.09.27 2.72 0 1.57-.27 2.72H476q.27 1.09.27 2.72m-7.75 2.72h2.04q-.27-1.15-.27-2.72 0-1.63.27-2.72h-2.04q-.27-1.15-.27-2.72 0-1.63.27-2.72h-6.8q.27 1.09.27 2.72 0 1.57-.27 2.72h-2.04q.27 1.09.27 2.72 0 1.57-.27 2.72h2.04q.27 1.09.27 2.72 0 1.57-.27 2.72h6.8q-.27-1.15-.27-2.72 0-1.63.27-2.72" transform="translate(-465.12 -186.26)"></path></g><g transform="translate(492.32 186.26)"><linearGradient id="m" x1="-12.386" x2="2.349" y1="0" y2="0" gradientUnits="objectBoundingBox"><stop offset="0%" stop-color="#cbcbcb"></stop><stop offset="100%" stop-color="#636363"></stop></linearGradient><path fill="url(#m)" d="M503.2 178.1q.27 1.09.27 2.72 0 1.57-.27 2.72h-5.44q-.27-1.15-.27-2.72 0-1.63.27-2.72H493q.27 1.09.27 2.72 0 1.57-.27 2.72h-2.04q.27 1.09.27 2.72 0 1.57-.27 2.72.27 1.09.27 2.72 0 1.57-.27 2.72h4.08q.27 1.09.27 2.72 0 1.57-.27 2.72h-13.6q-.27-1.15-.27-2.72 0-1.63.27-2.72h4.08q-.27-1.15-.27-2.72 0-1.63.27-2.72-.27-1.15-.27-2.72 0-1.63.27-2.72-.27-1.15-.27-2.72 0-1.63.27-2.72h-4.08q-.27-1.15-.27-2.72 0-1.63.27-2.72h6.8q.27 1.09.27 2.72 0 1.57-.27 2.72h2.72q-.27-1.15-.27-2.72 0-1.63.27-2.72h10.2q.27 1.09.27 2.72 0 1.57-.27 2.72z" transform="translate(-492.32 -186.26)"></path></g><g transform="translate(519.52 186.26)"><linearGradient id="n" x1="-13.386" x2="1.349" y1="0" y2="0" gradientUnits="objectBoundingBox"><stop offset="0%" stop-color="#cbcbcb"></stop><stop offset="100%" stop-color="#636363"></stop></linearGradient><path fill="url(#n)" d="M516.39 191.7q0 1.57-.27 2.72h6.8q.27 1.09.27 2.72 0 1.57-.27 2.72h-10.88q-.27-1.15-.27-2.72 0-1.63.27-2.72h-3.4q-.27-1.15-.27-2.72 0-1.63.27-2.72-.27-1.15-.27-2.72 0-1.63.27-2.72-.27-1.15-.27-2.72 0-1.63.27-2.72-.27-1.15-.27-2.72 0-1.63.27-2.72h5.44q.27 1.09.27 2.72 0 1.57-.27 2.72.27 1.09.27 2.72 0 1.57-.27 2.72.27 1.09.27 2.72 0 1.57-.27 2.72h2.04q.27 1.09.27 2.72m14.01-13.6q.27 1.09.27 2.72 0 1.57-.27 2.72.27 1.09.27 2.72 0 1.57-.27 2.72.27 1.09.27 2.72 0 1.57-.27 2.72.27 1.09.27 2.72 0 1.57-.27 2.72h-5.44q-.27-1.15-.27-2.72 0-1.63.27-2.72h-2.04q-.27-1.15-.27-2.72 0-1.63.27-2.72h2.04q-.27-1.15-.27-2.72 0-1.63.27-2.72-.27-1.15-.27-2.72 0-1.63.27-2.72-.27-1.15-.27-2.72 0-1.63.27-2.72h5.44q.27 1.09.27 2.72 0 1.57-.27 2.72" transform="translate(-519.52 -186.26)"></path></g><g transform="translate(546.72 186.26)"><linearGradient id="o" x1="-14.386" x2=".349" y1="0" y2="0" gradientUnits="objectBoundingBox"><stop offset="0%" stop-color="#cbcbcb"></stop><stop offset="100%" stop-color="#636363"></stop></linearGradient><path fill="url(#o)" d="M540.87 175.38q0 1.57-.27 2.72h2.72q.27 1.09.27 2.72 0 1.57-.27 2.72h-2.04q.27 1.09.27 2.72 0 1.57-.27 2.72.27 1.09.27 2.72 0 1.57-.27 2.72.27 1.09.27 2.72 0 1.57-.27 2.72h-5.44q-.27-1.15-.27-2.72 0-1.63.27-2.72-.27-1.15-.27-2.72 0-1.63.27-2.72-.27-1.15-.27-2.72 0-1.63.27-2.72-.27-1.15-.27-2.72 0-1.63.27-2.72-.27-1.15-.27-2.72 0-1.63.27-2.72h4.76q.27 1.09.27 2.72m16.73 8.16q.27 1.09.27 2.72 0 1.57-.27 2.72.27 1.09.27 2.72 0 1.57-.27 2.72.27 1.09.27 2.72 0 1.57-.27 2.72h-5.44q-.27-1.15-.27-2.72 0-1.63.27-2.72-.27-1.15-.27-2.72 0-1.63.27-2.72-.27-1.15-.27-2.72 0-1.63.27-2.72-.27-1.15-.27-2.72 0-1.63.27-2.72h-8.84q-.27-1.15-.27-2.72 0-1.63.27-2.72h10.88q.27 1.09.27 2.72 0 1.57-.27 2.72h3.4q.27 1.09.27 2.72 0 1.57-.27 2.72" transform="translate(-546.72 -186.26)"></path></g><path fill="#1b1b1b" d="M357.243 69.657V-.222H-.202v357.445h357.445v-69.879h-5.82v64.059H5.618V5.598h345.805v64.059z"></path></svg></svg>