<svg width="80" height="50" viewBox="0 0 80 50" fill="none" xmlns="http://www.w3.org/2000/svg">
<line y1="0.5" x2="45" y2="0.5" stroke="#699DF2"/>
<line y1="49.5" x2="45" y2="49.5" stroke="#699DF2"/>
<line x1="0.5" y1="1" x2="0.5" y2="50" stroke="#699DF2"/>
<line x1="44.5" x2="44.5" y2="16" stroke="#699DF2"/>
<line x1="44.5" y1="34" x2="44.5" y2="50" stroke="#699DF2"/>
<path d="M9.44 26.08C9.472 26.208 9.488 26.368 9.488 26.56C9.488 26.744 9.472 26.904 9.44 27.04H8.96C8.992 27.168 9.008 27.328 9.008 27.52C9.008 27.704 8.992 27.864 8.96 28H8.48C8.448 27.864 8.432 27.704 8.432 27.52C8.432 27.328 8.448 27.168 8.48 27.04C8.448 26.904 8.432 26.744 8.432 26.56C8.432 26.368 8.448 26.208 8.48 26.08C8.448 25.944 8.432 25.784 8.432 25.6C8.432 25.408 8.448 25.248 8.48 25.12C8.448 24.984 8.432 24.824 8.432 24.64C8.432 24.448 8.448 24.288 8.48 24.16C8.448 24.024 8.432 23.864 8.432 23.68C8.432 23.488 8.448 23.328 8.48 23.2C8.448 23.064 8.432 22.904 8.432 22.72C8.432 22.528 8.448 22.368 8.48 22.24C8.448 22.104 8.432 21.944 8.432 21.76C8.432 21.568 8.448 21.408 8.48 21.28H9.44C9.472 21.408 9.488 21.568 9.488 21.76C9.488 21.944 9.472 22.104 9.44 22.24C9.472 22.368 9.488 22.528 9.488 22.72C9.488 22.904 9.472 23.064 9.44 23.2C9.472 23.328 9.488 23.488 9.488 23.68C9.488 23.864 9.472 24.024 9.44 24.16H9.92C9.952 24.288 9.968 24.448 9.968 24.64C9.968 24.824 9.952 24.984 9.92 25.12H9.44C9.472 25.248 9.488 25.408 9.488 25.6C9.488 25.784 9.472 25.944 9.44 26.08ZM12.368 25.6C12.368 25.784 12.352 25.944 12.32 26.08H11.84C11.872 26.208 11.888 26.368 11.888 26.56C11.888 26.744 11.872 26.904 11.84 27.04H10.88C10.848 26.904 10.832 26.744 10.832 26.56C10.832 26.368 10.848 26.208 10.88 26.08H11.36C11.328 25.944 11.312 25.784 11.312 25.6C11.312 25.408 11.328 25.248 11.36 25.12H10.88C10.848 24.984 10.832 24.824 10.832 24.64C10.832 24.448 10.848 24.288 10.88 24.16H9.92C9.888 24.024 9.872 23.864 9.872 23.68C9.872 23.488 9.888 23.328 9.92 23.2H11.36C11.392 23.328 11.408 23.488 11.408 23.68C11.408 23.864 11.392 24.024 11.36 24.16H11.84C11.872 24.288 11.888 24.448 11.888 24.64C11.888 24.824 11.872 24.984 11.84 25.12H12.32C12.352 25.248 12.368 25.408 12.368 25.6ZM9.392 27.52C9.392 27.328 9.408 27.168 9.44 27.04H10.88C10.912 27.168 10.928 27.328 10.928 27.52C10.928 27.704 10.912 27.864 10.88 28H9.44C9.408 27.864 9.392 27.704 9.392 27.52ZM14.6527 26.56C14.6527 26.744 14.6367 26.904 14.6047 27.04H15.8047C15.8367 27.168 15.8527 27.328 15.8527 27.52C15.8527 27.704 15.8367 27.864 15.8047 28H13.8847C13.8527 27.864 13.8367 27.704 13.8367 27.52C13.8367 27.328 13.8527 27.168 13.8847 27.04H13.2847C13.2527 26.904 13.2367 26.744 13.2367 26.56C13.2367 26.368 13.2527 26.208 13.2847 26.08C13.2527 25.944 13.2367 25.784 13.2367 25.6C13.2367 25.408 13.2527 25.248 13.2847 25.12C13.2527 24.984 13.2367 24.824 13.2367 24.64C13.2367 24.448 13.2527 24.288 13.2847 24.16C13.2527 24.024 13.2367 23.864 13.2367 23.68C13.2367 23.488 13.2527 23.328 13.2847 23.2H14.2447C14.2767 23.328 14.2927 23.488 14.2927 23.68C14.2927 23.864 14.2767 24.024 14.2447 24.16C14.2767 24.288 14.2927 24.448 14.2927 24.64C14.2927 24.824 14.2767 24.984 14.2447 25.12C14.2767 25.248 14.2927 25.408 14.2927 25.6C14.2927 25.784 14.2767 25.944 14.2447 26.08H14.6047C14.6367 26.208 14.6527 26.368 14.6527 26.56ZM17.1247 24.16C17.1567 24.288 17.1727 24.448 17.1727 24.64C17.1727 24.824 17.1567 24.984 17.1247 25.12C17.1567 25.248 17.1727 25.408 17.1727 25.6C17.1727 25.784 17.1567 25.944 17.1247 26.08C17.1567 26.208 17.1727 26.368 17.1727 26.56C17.1727 26.744 17.1567 26.904 17.1247 27.04C17.1567 27.168 17.1727 27.328 17.1727 27.52C17.1727 27.704 17.1567 27.864 17.1247 28H16.1647C16.1327 27.864 16.1167 27.704 16.1167 27.52C16.1167 27.328 16.1327 27.168 16.1647 27.04H15.8047C15.7727 26.904 15.7567 26.744 15.7567 26.56C15.7567 26.368 15.7727 26.208 15.8047 26.08H16.1647C16.1327 25.944 16.1167 25.784 16.1167 25.6C16.1167 25.408 16.1327 25.248 16.1647 25.12C16.1327 24.984 16.1167 24.824 16.1167 24.64C16.1167 24.448 16.1327 24.288 16.1647 24.16C16.1327 24.024 16.1167 23.864 16.1167 23.68C16.1167 23.488 16.1327 23.328 16.1647 23.2H17.1247C17.1567 23.328 17.1727 23.488 17.1727 23.68C17.1727 23.864 17.1567 24.024 17.1247 24.16ZM19.5294 22.24C19.4974 22.104 19.4814 21.944 19.4814 21.76C19.4814 21.568 19.4974 21.408 19.5294 21.28H20.4894C20.5214 21.408 20.5374 21.568 20.5374 21.76C20.5374 21.944 20.5214 22.104 20.4894 22.24H19.5294ZM21.4494 27.04C21.4814 27.168 21.4974 27.328 21.4974 27.52C21.4974 27.704 21.4814 27.864 21.4494 28H18.5694C18.5374 27.864 18.5214 27.704 18.5214 27.52C18.5214 27.328 18.5374 27.168 18.5694 27.04H19.5294C19.4974 26.904 19.4814 26.744 19.4814 26.56C19.4814 26.368 19.4974 26.208 19.5294 26.08C19.4974 25.944 19.4814 25.784 19.4814 25.6C19.4814 25.408 19.4974 25.248 19.5294 25.12C19.4974 24.984 19.4814 24.824 19.4814 24.64C19.4814 24.448 19.4974 24.288 19.5294 24.16H18.8094C18.7774 24.024 18.7614 23.864 18.7614 23.68C18.7614 23.488 18.7774 23.328 18.8094 23.2H20.4894C20.5214 23.328 20.5374 23.488 20.5374 23.68C20.5374 23.864 20.5214 24.024 20.4894 24.16C20.5214 24.288 20.5374 24.448 20.5374 24.64C20.5374 24.824 20.5214 24.984 20.4894 25.12C20.5214 25.248 20.5374 25.408 20.5374 25.6C20.5374 25.784 20.5214 25.944 20.4894 26.08C20.5214 26.208 20.5374 26.368 20.5374 26.56C20.5374 26.744 20.5214 26.904 20.4894 27.04H21.4494ZM26.2541 27.04C26.2861 27.168 26.3021 27.328 26.3021 27.52C26.3021 27.704 26.2861 27.864 26.2541 28H23.3741C23.3421 27.864 23.3261 27.704 23.3261 27.52C23.3261 27.328 23.3421 27.168 23.3741 27.04H24.3341C24.3021 26.904 24.2861 26.744 24.2861 26.56C24.2861 26.368 24.3021 26.208 24.3341 26.08C24.3021 25.944 24.2861 25.784 24.2861 25.6C24.2861 25.408 24.3021 25.248 24.3341 25.12C24.3021 24.984 24.2861 24.824 24.2861 24.64C24.2861 24.448 24.3021 24.288 24.3341 24.16C24.3021 24.024 24.2861 23.864 24.2861 23.68C24.2861 23.488 24.3021 23.328 24.3341 23.2C24.3021 23.064 24.2861 22.904 24.2861 22.72C24.2861 22.528 24.3021 22.368 24.3341 22.24H23.6141C23.5821 22.104 23.5661 21.944 23.5661 21.76C23.5661 21.568 23.5821 21.408 23.6141 21.28H25.2941C25.3261 21.408 25.3421 21.568 25.3421 21.76C25.3421 21.944 25.3261 22.104 25.2941 22.24C25.3261 22.368 25.3421 22.528 25.3421 22.72C25.3421 22.904 25.3261 23.064 25.2941 23.2C25.3261 23.328 25.3421 23.488 25.3421 23.68C25.3421 23.864 25.3261 24.024 25.2941 24.16C25.3261 24.288 25.3421 24.448 25.3421 24.64C25.3421 24.824 25.3261 24.984 25.2941 25.12C25.3261 25.248 25.3421 25.408 25.3421 25.6C25.3421 25.784 25.3261 25.944 25.2941 26.08C25.3261 26.208 25.3421 26.368 25.3421 26.56C25.3421 26.744 25.3261 26.904 25.2941 27.04H26.2541ZM31.0588 27.04C31.0908 27.168 31.1068 27.328 31.1068 27.52C31.1068 27.704 31.0908 27.864 31.0588 28H29.1388C29.1068 27.864 29.0908 27.704 29.0908 27.52C29.0908 27.328 29.1068 27.168 29.1388 27.04H28.6588C28.6268 26.904 28.6108 26.744 28.6108 26.56C28.6108 26.368 28.6268 26.208 28.6588 26.08C28.6268 25.944 28.6108 25.784 28.6108 25.6C28.6108 25.408 28.6268 25.248 28.6588 25.12C28.6268 24.984 28.6108 24.824 28.6108 24.64C28.6108 24.448 28.6268 24.288 28.6588 24.16H27.6988C27.6668 24.024 27.6508 23.864 27.6508 23.68C27.6508 23.488 27.6668 23.328 27.6988 23.2H28.6588C28.6268 23.064 28.6108 22.904 28.6108 22.72C28.6108 22.528 28.6268 22.368 28.6588 22.24C28.6268 22.104 28.6108 21.944 28.6108 21.76C28.6108 21.568 28.6268 21.408 28.6588 21.28H29.6188C29.6508 21.408 29.6668 21.568 29.6668 21.76C29.6668 21.944 29.6508 22.104 29.6188 22.24C29.6508 22.368 29.6668 22.528 29.6668 22.72C29.6668 22.904 29.6508 23.064 29.6188 23.2H31.0588C31.0908 23.328 31.1068 23.488 31.1068 23.68C31.1068 23.864 31.0908 24.024 31.0588 24.16H29.6188C29.6508 24.288 29.6668 24.448 29.6668 24.64C29.6668 24.824 29.6508 24.984 29.6188 25.12C29.6508 25.248 29.6668 25.408 29.6668 25.6C29.6668 25.784 29.6508 25.944 29.6188 26.08C29.6508 26.208 29.6668 26.368 29.6668 26.56C29.6668 26.744 29.6508 26.904 29.6188 27.04H31.0588ZM33.4634 26.08C33.4954 26.208 33.5114 26.368 33.5114 26.56C33.5114 26.744 33.4954 26.904 33.4634 27.04H32.9834C33.0154 27.168 33.0314 27.328 33.0314 27.52C33.0314 27.704 33.0154 27.864 32.9834 28H32.5034C32.4714 27.864 32.4554 27.704 32.4554 27.52C32.4554 27.328 32.4714 27.168 32.5034 27.04C32.4714 26.904 32.4554 26.744 32.4554 26.56C32.4554 26.368 32.4714 26.208 32.5034 26.08C32.4714 25.944 32.4554 25.784 32.4554 25.6C32.4554 25.408 32.4714 25.248 32.5034 25.12C32.4714 24.984 32.4554 24.824 32.4554 24.64C32.4554 24.448 32.4714 24.288 32.5034 24.16C32.4714 24.024 32.4554 23.864 32.4554 23.68C32.4554 23.488 32.4714 23.328 32.5034 23.2C32.4714 23.064 32.4554 22.904 32.4554 22.72C32.4554 22.528 32.4714 22.368 32.5034 22.24C32.4714 22.104 32.4554 21.944 32.4554 21.76C32.4554 21.568 32.4714 21.408 32.5034 21.28H33.4634C33.4954 21.408 33.5114 21.568 33.5114 21.76C33.5114 21.944 33.4954 22.104 33.4634 22.24C33.4954 22.368 33.5114 22.528 33.5114 22.72C33.5114 22.904 33.4954 23.064 33.4634 23.2C33.4954 23.328 33.5114 23.488 33.5114 23.68C33.5114 23.864 33.4954 24.024 33.4634 24.16H33.9434C33.9754 24.288 33.9914 24.448 33.9914 24.64C33.9914 24.824 33.9754 24.984 33.9434 25.12H33.4634C33.4954 25.248 33.5114 25.408 33.5114 25.6C33.5114 25.784 33.4954 25.944 33.4634 26.08ZM36.3914 25.6C36.3914 25.784 36.3754 25.944 36.3434 26.08H35.8634C35.8954 26.208 35.9114 26.368 35.9114 26.56C35.9114 26.744 35.8954 26.904 35.8634 27.04H34.9034C34.8714 26.904 34.8554 26.744 34.8554 26.56C34.8554 26.368 34.8714 26.208 34.9034 26.08H35.3834C35.3514 25.944 35.3354 25.784 35.3354 25.6C35.3354 25.408 35.3514 25.248 35.3834 25.12H34.9034C34.8714 24.984 34.8554 24.824 34.8554 24.64C34.8554 24.448 34.8714 24.288 34.9034 24.16H33.9434C33.9114 24.024 33.8954 23.864 33.8954 23.68C33.8954 23.488 33.9114 23.328 33.9434 23.2H35.3834C35.4154 23.328 35.4314 23.488 35.4314 23.68C35.4314 23.864 35.4154 24.024 35.3834 24.16H35.8634C35.8954 24.288 35.9114 24.448 35.9114 24.64C35.9114 24.824 35.8954 24.984 35.8634 25.12H36.3434C36.3754 25.248 36.3914 25.408 36.3914 25.6ZM33.4154 27.52C33.4154 27.328 33.4314 27.168 33.4634 27.04H34.9034C34.9354 27.168 34.9514 27.328 34.9514 27.52C34.9514 27.704 34.9354 27.864 34.9034 28H33.4634C33.4314 27.864 33.4154 27.704 33.4154 27.52ZM41.1961 23.68C41.1961 23.864 41.1801 24.024 41.1481 24.16H40.7881C40.8201 24.288 40.8361 24.448 40.8361 24.64C40.8361 24.824 40.8201 24.984 40.7881 25.12H40.4281C40.4601 25.248 40.4761 25.408 40.4761 25.6C40.4761 25.784 40.4601 25.944 40.4281 26.08H40.1881C40.2201 26.208 40.2361 26.368 40.2361 26.56C40.2361 26.744 40.2201 26.904 40.1881 27.04H39.8281C39.8601 27.168 39.8761 27.328 39.8761 27.52C39.8761 27.704 39.8601 27.864 39.8281 28H39.5881C39.6201 28.128 39.6361 28.288 39.6361 28.48C39.6361 28.664 39.6201 28.824 39.5881 28.96H39.1081C39.1401 29.088 39.1561 29.248 39.1561 29.44C39.1561 29.624 39.1401 29.784 39.1081 29.92H37.6681C37.6361 29.784 37.6201 29.624 37.6201 29.44C37.6201 29.248 37.6361 29.088 37.6681 28.96H38.6281C38.5961 28.824 38.5801 28.664 38.5801 28.48C38.5801 28.288 38.5961 28.128 38.6281 28C38.5961 27.864 38.5801 27.704 38.5801 27.52C38.5801 27.328 38.5961 27.168 38.6281 27.04H38.1481C38.1161 26.904 38.1001 26.744 38.1001 26.56C38.1001 26.368 38.1161 26.208 38.1481 26.08H37.9081C37.8761 25.944 37.8601 25.784 37.8601 25.6C37.8601 25.408 37.8761 25.248 37.9081 25.12H37.5481C37.5161 24.984 37.5001 24.824 37.5001 24.64C37.5001 24.448 37.5161 24.288 37.5481 24.16H37.1881C37.1561 24.024 37.1401 23.864 37.1401 23.68C37.1401 23.488 37.1561 23.328 37.1881 23.2H38.1481C38.1801 23.328 38.1961 23.488 38.1961 23.68C38.1961 23.864 38.1801 24.024 38.1481 24.16H38.5081C38.5401 24.288 38.5561 24.448 38.5561 24.64C38.5561 24.824 38.5401 24.984 38.5081 25.12H38.8681C38.9001 25.248 38.9161 25.408 38.9161 25.6C38.9161 25.784 38.9001 25.944 38.8681 26.08C38.9001 26.208 38.9161 26.368 38.9161 26.56C38.9161 26.744 38.9001 26.904 38.8681 27.04H39.2281C39.1961 26.904 39.1801 26.744 39.1801 26.56C39.1801 26.368 39.1961 26.208 39.2281 26.08H39.4681C39.4361 25.944 39.4201 25.784 39.4201 25.6C39.4201 25.408 39.4361 25.248 39.4681 25.12H39.8281C39.7961 24.984 39.7801 24.824 39.7801 24.64C39.7801 24.448 39.7961 24.288 39.8281 24.16H40.1881C40.1561 24.024 40.1401 23.864 40.1401 23.68C40.1401 23.488 40.1561 23.328 40.1881 23.2H41.1481C41.1801 23.328 41.1961 23.488 41.1961 23.68ZM46.0008 24.64C46.0008 24.824 45.9848 24.984 45.9528 25.12C45.9848 25.248 46.0008 25.408 46.0008 25.6C46.0008 25.784 45.9848 25.944 45.9528 26.08H43.4328C43.4648 26.208 43.4808 26.368 43.4808 26.56C43.4808 26.744 43.4648 26.904 43.4328 27.04H45.4728C45.5048 27.168 45.5208 27.328 45.5208 27.52C45.5208 27.704 45.5048 27.864 45.4728 28H43.0728C43.0408 27.864 43.0248 27.704 43.0248 27.52C43.0248 27.328 43.0408 27.168 43.0728 27.04H42.4728C42.4408 26.904 42.4248 26.744 42.4248 26.56C42.4248 26.368 42.4408 26.208 42.4728 26.08H42.1128C42.0808 25.944 42.0648 25.784 42.0648 25.6C42.0648 25.408 42.0808 25.248 42.1128 25.12H42.4728C42.4408 24.984 42.4248 24.824 42.4248 24.64C42.4248 24.448 42.4408 24.288 42.4728 24.16H43.0728C43.0408 24.024 43.0248 23.864 43.0248 23.68C43.0248 23.488 43.0408 23.328 43.0728 23.2H45.4728C45.5048 23.328 45.5208 23.488 45.5208 23.68C45.5208 23.864 45.5048 24.024 45.4728 24.16H45.9528C45.9848 24.288 46.0008 24.448 46.0008 24.64ZM44.9928 25.12C44.9608 24.984 44.9448 24.824 44.9448 24.64C44.9448 24.448 44.9608 24.288 44.9928 24.16H43.4328C43.4648 24.288 43.4808 24.448 43.4808 24.64C43.4808 24.824 43.4648 24.984 43.4328 25.12H44.9928ZM47.8775 26.08C47.9095 26.208 47.9255 26.368 47.9255 26.56C47.9255 26.744 47.9095 26.904 47.8775 27.04H47.3975C47.4295 27.168 47.4455 27.328 47.4455 27.52C47.4455 27.704 47.4295 27.864 47.3975 28H46.9175C46.8855 27.864 46.8695 27.704 46.8695 27.52C46.8695 27.328 46.8855 27.168 46.9175 27.04C46.8855 26.904 46.8695 26.744 46.8695 26.56C46.8695 26.368 46.8855 26.208 46.9175 26.08C46.8855 25.944 46.8695 25.784 46.8695 25.6C46.8695 25.408 46.8855 25.248 46.9175 25.12C46.8855 24.984 46.8695 24.824 46.8695 24.64C46.8695 24.448 46.8855 24.288 46.9175 24.16C46.8855 24.024 46.8695 23.864 46.8695 23.68C46.8695 23.488 46.8855 23.328 46.9175 23.2C46.8855 23.064 46.8695 22.904 46.8695 22.72C46.8695 22.528 46.8855 22.368 46.9175 22.24C46.8855 22.104 46.8695 21.944 46.8695 21.76C46.8695 21.568 46.8855 21.408 46.9175 21.28H47.8775C47.9095 21.408 47.9255 21.568 47.9255 21.76C47.9255 21.944 47.9095 22.104 47.8775 22.24C47.9095 22.368 47.9255 22.528 47.9255 22.72C47.9255 22.904 47.9095 23.064 47.8775 23.2C47.9095 23.328 47.9255 23.488 47.9255 23.68C47.9255 23.864 47.9095 24.024 47.8775 24.16H48.3575C48.3895 24.288 48.4055 24.448 48.4055 24.64C48.4055 24.824 48.3895 24.984 48.3575 25.12H47.8775C47.9095 25.248 47.9255 25.408 47.9255 25.6C47.9255 25.784 47.9095 25.944 47.8775 26.08ZM50.8055 25.6C50.8055 25.784 50.7895 25.944 50.7575 26.08H50.2775C50.3095 26.208 50.3255 26.368 50.3255 26.56C50.3255 26.744 50.3095 26.904 50.2775 27.04H49.3175C49.2855 26.904 49.2695 26.744 49.2695 26.56C49.2695 26.368 49.2855 26.208 49.3175 26.08H49.7975C49.7655 25.944 49.7495 25.784 49.7495 25.6C49.7495 25.408 49.7655 25.248 49.7975 25.12H49.3175C49.2855 24.984 49.2695 24.824 49.2695 24.64C49.2695 24.448 49.2855 24.288 49.3175 24.16H48.3575C48.3255 24.024 48.3095 23.864 48.3095 23.68C48.3095 23.488 48.3255 23.328 48.3575 23.2H49.7975C49.8295 23.328 49.8455 23.488 49.8455 23.68C49.8455 23.864 49.8295 24.024 49.7975 24.16H50.2775C50.3095 24.288 50.3255 24.448 50.3255 24.64C50.3255 24.824 50.3095 24.984 50.2775 25.12H50.7575C50.7895 25.248 50.8055 25.408 50.8055 25.6ZM47.8295 27.52C47.8295 27.328 47.8455 27.168 47.8775 27.04H49.3175C49.3495 27.168 49.3655 27.328 49.3655 27.52C49.3655 27.704 49.3495 27.864 49.3175 28H47.8775C47.8455 27.864 47.8295 27.704 47.8295 27.52ZM53.0902 26.56C53.0902 26.744 53.0742 26.904 53.0422 27.04H54.2422C54.2742 27.168 54.2902 27.328 54.2902 27.52C54.2902 27.704 54.2742 27.864 54.2422 28H52.3222C52.2902 27.864 52.2742 27.704 52.2742 27.52C52.2742 27.328 52.2902 27.168 52.3222 27.04H51.7222C51.6902 26.904 51.6742 26.744 51.6742 26.56C51.6742 26.368 51.6902 26.208 51.7222 26.08C51.6902 25.944 51.6742 25.784 51.6742 25.6C51.6742 25.408 51.6902 25.248 51.7222 25.12C51.6902 24.984 51.6742 24.824 51.6742 24.64C51.6742 24.448 51.6902 24.288 51.7222 24.16C51.6902 24.024 51.6742 23.864 51.6742 23.68C51.6742 23.488 51.6902 23.328 51.7222 23.2H52.6822C52.7142 23.328 52.7302 23.488 52.7302 23.68C52.7302 23.864 52.7142 24.024 52.6822 24.16C52.7142 24.288 52.7302 24.448 52.7302 24.64C52.7302 24.824 52.7142 24.984 52.6822 25.12C52.7142 25.248 52.7302 25.408 52.7302 25.6C52.7302 25.784 52.7142 25.944 52.6822 26.08H53.0422C53.0742 26.208 53.0902 26.368 53.0902 26.56ZM55.5622 24.16C55.5942 24.288 55.6102 24.448 55.6102 24.64C55.6102 24.824 55.5942 24.984 55.5622 25.12C55.5942 25.248 55.6102 25.408 55.6102 25.6C55.6102 25.784 55.5942 25.944 55.5622 26.08C55.5942 26.208 55.6102 26.368 55.6102 26.56C55.6102 26.744 55.5942 26.904 55.5622 27.04C55.5942 27.168 55.6102 27.328 55.6102 27.52C55.6102 27.704 55.5942 27.864 55.5622 28H54.6022C54.5702 27.864 54.5542 27.704 54.5542 27.52C54.5542 27.328 54.5702 27.168 54.6022 27.04H54.2422C54.2102 26.904 54.1942 26.744 54.1942 26.56C54.1942 26.368 54.2102 26.208 54.2422 26.08H54.6022C54.5702 25.944 54.5542 25.784 54.5542 25.6C54.5542 25.408 54.5702 25.248 54.6022 25.12C54.5702 24.984 54.5542 24.824 54.5542 24.64C54.5542 24.448 54.5702 24.288 54.6022 24.16C54.5702 24.024 54.5542 23.864 54.5542 23.68C54.5542 23.488 54.5702 23.328 54.6022 23.2H55.5622C55.5942 23.328 55.6102 23.488 55.6102 23.68C55.6102 23.864 55.5942 24.024 55.5622 24.16ZM57.4149 23.68C57.4149 23.864 57.3989 24.024 57.3669 24.16H57.8469C57.8789 24.288 57.8949 24.448 57.8949 24.64C57.8949 24.824 57.8789 24.984 57.8469 25.12H57.4869C57.5189 25.248 57.5349 25.408 57.5349 25.6C57.5349 25.784 57.5189 25.944 57.4869 26.08C57.5189 26.208 57.5349 26.368 57.5349 26.56C57.5349 26.744 57.5189 26.904 57.4869 27.04C57.5189 27.168 57.5349 27.328 57.5349 27.52C57.5349 27.704 57.5189 27.864 57.4869 28H56.5269C56.4949 27.864 56.4789 27.704 56.4789 27.52C56.4789 27.328 56.4949 27.168 56.5269 27.04C56.4949 26.904 56.4789 26.744 56.4789 26.56C56.4789 26.368 56.4949 26.208 56.5269 26.08C56.4949 25.944 56.4789 25.784 56.4789 25.6C56.4789 25.408 56.4949 25.248 56.5269 25.12C56.4949 24.984 56.4789 24.824 56.4789 24.64C56.4789 24.448 56.4949 24.288 56.5269 24.16C56.4949 24.024 56.4789 23.864 56.4789 23.68C56.4789 23.488 56.4949 23.328 56.5269 23.2H57.3669C57.3989 23.328 57.4149 23.488 57.4149 23.68ZM60.3669 25.12C60.3989 25.248 60.4149 25.408 60.4149 25.6C60.4149 25.784 60.3989 25.944 60.3669 26.08C60.3989 26.208 60.4149 26.368 60.4149 26.56C60.4149 26.744 60.3989 26.904 60.3669 27.04C60.3989 27.168 60.4149 27.328 60.4149 27.52C60.4149 27.704 60.3989 27.864 60.3669 28H59.4069C59.3749 27.864 59.3589 27.704 59.3589 27.52C59.3589 27.328 59.3749 27.168 59.4069 27.04C59.3749 26.904 59.3589 26.744 59.3589 26.56C59.3589 26.368 59.3749 26.208 59.4069 26.08C59.3749 25.944 59.3589 25.784 59.3589 25.6C59.3589 25.408 59.3749 25.248 59.4069 25.12C59.3749 24.984 59.3589 24.824 59.3589 24.64C59.3589 24.448 59.3749 24.288 59.4069 24.16H57.8469C57.8149 24.024 57.7989 23.864 57.7989 23.68C57.7989 23.488 57.8149 23.328 57.8469 23.2H59.7669C59.7989 23.328 59.8149 23.488 59.8149 23.68C59.8149 23.864 59.7989 24.024 59.7669 24.16H60.3669C60.3989 24.288 60.4149 24.448 60.4149 24.64C60.4149 24.824 60.3989 24.984 60.3669 25.12ZM65.2196 25.6C65.2196 25.784 65.2036 25.944 65.1716 26.08H64.8116C64.8436 26.208 64.8596 26.368 64.8596 26.56C64.8596 26.744 64.8436 26.904 64.8116 27.04H64.2116C64.2436 27.168 64.2596 27.328 64.2596 27.52C64.2596 27.704 64.2436 27.864 64.2116 28H62.2916C62.2596 27.864 62.2436 27.704 62.2436 27.52C62.2436 27.328 62.2596 27.168 62.2916 27.04H61.6916C61.6596 26.904 61.6436 26.744 61.6436 26.56C61.6436 26.368 61.6596 26.208 61.6916 26.08H61.3316C61.2996 25.944 61.2836 25.784 61.2836 25.6C61.2836 25.408 61.2996 25.248 61.3316 25.12H61.6916C61.6596 24.984 61.6436 24.824 61.6436 24.64C61.6436 24.448 61.6596 24.288 61.6916 24.16H62.2916C62.2596 24.024 62.2436 23.864 62.2436 23.68C62.2436 23.488 62.2596 23.328 62.2916 23.2H64.2116C64.2436 23.328 64.2596 23.488 64.2596 23.68C64.2596 23.864 64.2436 24.024 64.2116 24.16H64.8116C64.8436 24.288 64.8596 24.448 64.8596 24.64C64.8596 24.824 64.8436 24.984 64.8116 25.12H65.1716C65.2036 25.248 65.2196 25.408 65.2196 25.6ZM64.2116 26.08C64.1796 25.944 64.1636 25.784 64.1636 25.6C64.1636 25.408 64.1796 25.248 64.2116 25.12H63.8516C63.8196 24.984 63.8036 24.824 63.8036 24.64C63.8036 24.448 63.8196 24.288 63.8516 24.16H62.6516C62.6836 24.288 62.6996 24.448 62.6996 24.64C62.6996 24.824 62.6836 24.984 62.6516 25.12H62.2916C62.3236 25.248 62.3396 25.408 62.3396 25.6C62.3396 25.784 62.3236 25.944 62.2916 26.08H62.6516C62.6836 26.208 62.6996 26.368 62.6996 26.56C62.6996 26.744 62.6836 26.904 62.6516 27.04H63.8516C63.8196 26.904 63.8036 26.744 63.8036 26.56C63.8036 26.368 63.8196 26.208 63.8516 26.08H64.2116ZM69.9763 24.16C70.0083 24.288 70.0243 24.448 70.0243 24.64C70.0243 24.824 70.0083 24.984 69.9763 25.12H69.0163C68.9843 24.984 68.9683 24.824 68.9683 24.64C68.9683 24.448 68.9843 24.288 69.0163 24.16H68.1763C68.2083 24.288 68.2243 24.448 68.2243 24.64C68.2243 24.824 68.2083 24.984 68.1763 25.12H67.8163C67.8483 25.248 67.8643 25.408 67.8643 25.6C67.8643 25.784 67.8483 25.944 67.8163 26.08C67.8483 26.208 67.8643 26.368 67.8643 26.56C67.8643 26.744 67.8483 26.904 67.8163 27.04H68.5363C68.5683 27.168 68.5843 27.328 68.5843 27.52C68.5843 27.704 68.5683 27.864 68.5363 28H66.1363C66.1043 27.864 66.0883 27.704 66.0883 27.52C66.0883 27.328 66.1043 27.168 66.1363 27.04H66.8563C66.8243 26.904 66.8083 26.744 66.8083 26.56C66.8083 26.368 66.8243 26.208 66.8563 26.08C66.8243 25.944 66.8083 25.784 66.8083 25.6C66.8083 25.408 66.8243 25.248 66.8563 25.12C66.8243 24.984 66.8083 24.824 66.8083 24.64C66.8083 24.448 66.8243 24.288 66.8563 24.16H66.1363C66.1043 24.024 66.0883 23.864 66.0883 23.68C66.0883 23.488 66.1043 23.328 66.1363 23.2H67.3363C67.3683 23.328 67.3843 23.488 67.3843 23.68C67.3843 23.864 67.3683 24.024 67.3363 24.16H67.8163C67.7843 24.024 67.7683 23.864 67.7683 23.68C67.7683 23.488 67.7843 23.328 67.8163 23.2H69.6163C69.6483 23.328 69.6643 23.488 69.6643 23.68C69.6643 23.864 69.6483 24.024 69.6163 24.16H69.9763ZM72.3089 26.56C72.3089 26.744 72.2929 26.904 72.2609 27.04H73.4609C73.4929 27.168 73.5089 27.328 73.5089 27.52C73.5089 27.704 73.4929 27.864 73.4609 28H71.5409C71.5089 27.864 71.4929 27.704 71.4929 27.52C71.4929 27.328 71.5089 27.168 71.5409 27.04H70.9409C70.9089 26.904 70.8929 26.744 70.8929 26.56C70.8929 26.368 70.9089 26.208 70.9409 26.08C70.9089 25.944 70.8929 25.784 70.8929 25.6C70.8929 25.408 70.9089 25.248 70.9409 25.12C70.9089 24.984 70.8929 24.824 70.8929 24.64C70.8929 24.448 70.9089 24.288 70.9409 24.16C70.9089 24.024 70.8929 23.864 70.8929 23.68C70.8929 23.488 70.9089 23.328 70.9409 23.2H71.9009C71.9329 23.328 71.9489 23.488 71.9489 23.68C71.9489 23.864 71.9329 24.024 71.9009 24.16C71.9329 24.288 71.9489 24.448 71.9489 24.64C71.9489 24.824 71.9329 24.984 71.9009 25.12C71.9329 25.248 71.9489 25.408 71.9489 25.6C71.9489 25.784 71.9329 25.944 71.9009 26.08H72.2609C72.2929 26.208 72.3089 26.368 72.3089 26.56ZM74.7809 24.16C74.8129 24.288 74.8289 24.448 74.8289 24.64C74.8289 24.824 74.8129 24.984 74.7809 25.12C74.8129 25.248 74.8289 25.408 74.8289 25.6C74.8289 25.784 74.8129 25.944 74.7809 26.08C74.8129 26.208 74.8289 26.368 74.8289 26.56C74.8289 26.744 74.8129 26.904 74.7809 27.04C74.8129 27.168 74.8289 27.328 74.8289 27.52C74.8289 27.704 74.8129 27.864 74.7809 28H73.8209C73.7889 27.864 73.7729 27.704 73.7729 27.52C73.7729 27.328 73.7889 27.168 73.8209 27.04H73.4609C73.4289 26.904 73.4129 26.744 73.4129 26.56C73.4129 26.368 73.4289 26.208 73.4609 26.08H73.8209C73.7889 25.944 73.7729 25.784 73.7729 25.6C73.7729 25.408 73.7889 25.248 73.8209 25.12C73.7889 24.984 73.7729 24.824 73.7729 24.64C73.7729 24.448 73.7889 24.288 73.8209 24.16C73.7889 24.024 73.7729 23.864 73.7729 23.68C73.7729 23.488 73.7889 23.328 73.8209 23.2H74.7809C74.8129 23.328 74.8289 23.488 74.8289 23.68C74.8289 23.864 74.8129 24.024 74.7809 24.16ZM76.6336 23.68C76.6336 23.864 76.6176 24.024 76.5856 24.16H77.0656C77.0976 24.288 77.1136 24.448 77.1136 24.64C77.1136 24.824 77.0976 24.984 77.0656 25.12H76.7056C76.7376 25.248 76.7536 25.408 76.7536 25.6C76.7536 25.784 76.7376 25.944 76.7056 26.08C76.7376 26.208 76.7536 26.368 76.7536 26.56C76.7536 26.744 76.7376 26.904 76.7056 27.04C76.7376 27.168 76.7536 27.328 76.7536 27.52C76.7536 27.704 76.7376 27.864 76.7056 28H75.7456C75.7136 27.864 75.6976 27.704 75.6976 27.52C75.6976 27.328 75.7136 27.168 75.7456 27.04C75.7136 26.904 75.6976 26.744 75.6976 26.56C75.6976 26.368 75.7136 26.208 75.7456 26.08C75.7136 25.944 75.6976 25.784 75.6976 25.6C75.6976 25.408 75.7136 25.248 75.7456 25.12C75.7136 24.984 75.6976 24.824 75.6976 24.64C75.6976 24.448 75.7136 24.288 75.7456 24.16C75.7136 24.024 75.6976 23.864 75.6976 23.68C75.6976 23.488 75.7136 23.328 75.7456 23.2H76.5856C76.6176 23.328 76.6336 23.488 76.6336 23.68ZM79.5856 25.12C79.6176 25.248 79.6336 25.408 79.6336 25.6C79.6336 25.784 79.6176 25.944 79.5856 26.08C79.6176 26.208 79.6336 26.368 79.6336 26.56C79.6336 26.744 79.6176 26.904 79.5856 27.04C79.6176 27.168 79.6336 27.328 79.6336 27.52C79.6336 27.704 79.6176 27.864 79.5856 28H78.6256C78.5936 27.864 78.5776 27.704 78.5776 27.52C78.5776 27.328 78.5936 27.168 78.6256 27.04C78.5936 26.904 78.5776 26.744 78.5776 26.56C78.5776 26.368 78.5936 26.208 78.6256 26.08C78.5936 25.944 78.5776 25.784 78.5776 25.6C78.5776 25.408 78.5936 25.248 78.6256 25.12C78.5936 24.984 78.5776 24.824 78.5776 24.64C78.5776 24.448 78.5936 24.288 78.6256 24.16H77.0656C77.0336 24.024 77.0176 23.864 77.0176 23.68C77.0176 23.488 77.0336 23.328 77.0656 23.2H78.9856C79.0176 23.328 79.0336 23.488 79.0336 23.68C79.0336 23.864 79.0176 24.024 78.9856 24.16H79.5856C79.6176 24.288 79.6336 24.448 79.6336 24.64C79.6336 24.824 79.6176 24.984 79.5856 25.12Z" fill="url(#paint0_linear_0_1)"/>
<defs>
<linearGradient id="paint0_linear_0_1" x1="8" y1="22.5" x2="103" y2="22.5" gradientUnits="userSpaceOnUse">
<stop stop-color="#69F2C2"/>
<stop offset="1" stop-color="#699DF2"/>
</linearGradient>
</defs>
</svg>
